<svg width="18" height="19" viewBox="0 0 18 19" fill="none" xmlns="http://www.w3.org/2000/svg">
<path d="M8.69798 1H8.33132C7.88929 1 7.46537 1.17559 7.15281 1.48816C6.84024 1.80072 6.66465 2.22464 6.66465 2.66667V2.81667C6.66435 3.10894 6.5872 3.39599 6.44093 3.64903C6.29467 3.90207 6.08443 4.1122 5.83132 4.25833L5.47298 4.46667C5.21962 4.61295 4.93221 4.68996 4.63965 4.68996C4.34709 4.68996 4.05968 4.61295 3.80632 4.46667L3.68132 4.4C3.29887 4.17939 2.84451 4.11954 2.41798 4.23359C1.99146 4.34764 1.62761 4.62628 1.40632 5.00833L1.22298 5.325C1.00237 5.70745 0.94252 6.1618 1.05657 6.58833C1.17063 7.01486 1.44926 7.37871 1.83132 7.6L1.95632 7.68333C2.20821 7.82876 2.41767 8.03757 2.56386 8.28903C2.71005 8.54048 2.78789 8.82581 2.78965 9.11667V9.54167C2.79082 9.83535 2.71436 10.1241 2.56802 10.3788C2.42168 10.6334 2.21066 10.8448 1.95632 10.9917L1.83132 11.0667C1.44926 11.288 1.17063 11.6518 1.05657 12.0783C0.94252 12.5049 1.00237 12.9592 1.22298 13.3417L1.40632 13.6583C1.62761 14.0404 1.99146 14.319 2.41798 14.4331C2.84451 14.5471 3.29887 14.4873 3.68132 14.2667L3.80632 14.2C4.05968 14.0537 4.34709 13.9767 4.63965 13.9767C4.93221 13.9767 5.21962 14.0537 5.47298 14.2L5.83132 14.4083C6.08443 14.5545 6.29467 14.7646 6.44093 15.0176C6.5872 15.2707 6.66435 15.5577 6.66465 15.85V16C6.66465 16.442 6.84024 16.8659 7.15281 17.1785C7.46537 17.4911 7.88929 17.6667 8.33132 17.6667H8.69798C9.14001 17.6667 9.56393 17.4911 9.87649 17.1785C10.1891 16.8659 10.3647 16.442 10.3647 16V15.85C10.3649 15.5577 10.4421 15.2707 10.5884 15.0176C10.7346 14.7646 10.9449 14.5545 11.198 14.4083L11.5563 14.2C11.8097 14.0537 12.0971 13.9767 12.3896 13.9767C12.6822 13.9767 12.9696 14.0537 13.223 14.2L13.348 14.2667C13.7304 14.4873 14.1848 14.5471 14.6113 14.4331C15.0378 14.319 15.4017 14.0404 15.623 13.6583L15.8063 13.3333C16.0269 12.9509 16.0868 12.4965 15.9727 12.07C15.8587 11.6435 15.58 11.2796 15.198 11.0583L15.073 10.9917C14.8186 10.8448 14.6076 10.6334 14.4613 10.3788C14.3149 10.1241 14.2385 9.83535 14.2397 9.54167V9.125C14.2385 8.83132 14.3149 8.54254 14.4613 8.28791C14.6076 8.03328 14.8186 7.82184 15.073 7.675L15.198 7.6C15.58 7.37871 15.8587 7.01486 15.9727 6.58833C16.0868 6.1618 16.0269 5.70745 15.8063 5.325L15.623 5.00833C15.4017 4.62628 15.0378 4.34764 14.6113 4.23359C14.1848 4.11954 13.7304 4.17939 13.348 4.4L13.223 4.46667C12.9696 4.61295 12.6822 4.68996 12.3896 4.68996C12.0971 4.68996 11.8097 4.61295 11.5563 4.46667L11.198 4.25833C10.9449 4.1122 10.7346 3.90207 10.5884 3.64903C10.4421 3.39599 10.3649 3.10894 10.3647 2.81667V2.66667C10.3647 2.22464 10.1891 1.80072 9.87649 1.48816C9.56393 1.17559 9.14001 1 8.69798 1Z" stroke="#F4F4F3" stroke-width="2" stroke-linecap="round" stroke-linejoin="round"/>
<path d="M8.51465 11.8333C9.89536 11.8333 11.0146 10.714 11.0146 9.33333C11.0146 7.95262 9.89536 6.83333 8.51465 6.83333C7.13394 6.83333 6.01465 7.95262 6.01465 9.33333C6.01465 10.714 7.13394 11.8333 8.51465 11.8333Z" stroke="#F4F4F3" stroke-width="2" stroke-linecap="round" stroke-linejoin="round"/>
</svg>
