<svg preserveAspectRatio="none" width="100%" height="100%" overflow="visible" style="display: block;" viewBox="0 0 40.0157 40.0157" fill="none" xmlns="http://www.w3.org/2000/svg">
<path id="Vector" d="M15.1802 13.0158C15.6504 11.6791 16.5785 10.552 17.8001 9.83405C19.0217 9.11611 20.458 8.85367 21.8546 9.09321C23.2511 9.33276 24.5178 10.0588 25.4304 11.1428C26.3429 12.2269 26.8423 13.5988 26.8402 15.0158C26.8402 19.0158 20.8402 21.0158 20.8402 21.0158M21 29.0156H21.02M12.8 35.0157C16.6172 36.9738 21.0082 37.5042 25.1818 36.5113C29.3554 35.5183 33.0371 33.0674 35.5635 29.6001C38.0899 26.1328 39.2949 21.8771 38.9612 17.6C38.6275 13.3229 36.7772 9.30566 33.7436 6.27211C30.7101 3.23855 26.6928 1.38822 22.4157 1.05455C18.1386 0.720882 13.883 1.92581 10.4157 4.45221C6.94836 6.97861 4.49741 10.6603 3.50447 14.8339C2.51154 19.0075 3.04191 23.3986 5.00003 27.2157L1.00003 39.0157L12.8 35.0157Z" stroke="var(--stroke-0, #F4F4F3)" stroke-width="2" stroke-linecap="round" stroke-linejoin="round"/>
</svg>
