<svg preserveAspectRatio="none" width="100%" height="100%" overflow="visible" style="display: block;" viewBox="0 0 16.9992 16.1665" fill="none" xmlns="http://www.w3.org/2000/svg">
<path id="Vector" d="M8.49919 15.1665H15.9992M10.9992 2.66646L13.4992 5.16646M12.1458 1.51811C12.4776 1.18637 12.9275 1 13.3967 1C13.8658 1 14.3158 1.18637 14.6475 1.51811C14.9792 1.84985 15.1656 2.29979 15.1656 2.76895C15.1656 3.2381 14.9792 3.68804 14.6475 4.01978L4.63917 14.0289C4.44091 14.2272 4.19585 14.3722 3.92667 14.4506L1.53333 15.1489C1.46163 15.1699 1.38562 15.1711 1.31326 15.1526C1.2409 15.134 1.17486 15.0964 1.12204 15.0436C1.06922 14.9908 1.03157 14.9247 1.01304 14.8524C0.994498 14.78 0.995752 14.704 1.01667 14.6323L1.715 12.2389C1.79352 11.9701 1.93854 11.7253 2.13667 11.5273L12.1458 1.51811Z" stroke="var(--stroke-0, #F4F4F3)" stroke-width="2" stroke-linecap="round" stroke-linejoin="round"/>
</svg>
