<svg preserveAspectRatio="none" width="100%" height="100%" overflow="visible" style="display: block;" viewBox="0 0 18.6671 18.6671" fill="none" xmlns="http://www.w3.org/2000/svg">
<path id="Vector" d="M15.9988 1.83354V5.16687M17.6654 3.5002H14.3321M2.66545 13.5002V15.1669M3.49878 14.3335H1.83211M7.6129 12.2502C7.5385 11.9618 7.38818 11.6986 7.17758 11.488C6.96698 11.2774 6.70379 11.1271 6.4154 11.0527L1.3029 9.73437C1.21567 9.70962 1.1389 9.65708 1.08424 9.58475C1.02958 9.51241 1 9.42421 1 9.33354C1 9.24287 1.02958 9.15468 1.08424 9.08234C1.1389 9.01 1.21567 8.95747 1.3029 8.93271L6.4154 7.61354C6.70369 7.53921 6.96681 7.38902 7.1774 7.17857C7.38799 6.96813 7.53837 6.70511 7.6129 6.41687L8.93123 1.30437C8.95574 1.21681 9.00822 1.13966 9.08066 1.0847C9.15311 1.02975 9.24155 1 9.33248 1C9.42341 1 9.51185 1.02975 9.58429 1.0847C9.65674 1.13966 9.70922 1.21681 9.73373 1.30437L11.0512 6.41687C11.1256 6.70527 11.2759 6.96846 11.4865 7.17906C11.6971 7.38966 11.9603 7.53998 12.2487 7.61438L17.3612 8.93187C17.4491 8.95612 17.5267 9.00855 17.5819 9.08111C17.6372 9.15366 17.6671 9.24234 17.6671 9.33354C17.6671 9.42474 17.6372 9.51342 17.5819 9.58598C17.5267 9.65853 17.4491 9.71096 17.3612 9.73521L12.2487 11.0527C11.9603 11.1271 11.6971 11.2774 11.4865 11.488C11.2759 11.6986 11.1256 11.9618 11.0512 12.2502L9.7329 17.3627C9.70839 17.4503 9.65591 17.5274 9.58346 17.5824C9.51101 17.6373 9.42258 17.6671 9.33165 17.6671C9.24071 17.6671 9.15228 17.6373 9.07983 17.5824C9.00738 17.5274 8.9549 17.4503 8.9304 17.3627L7.6129 12.2502Z" stroke="var(--stroke-0, #F4F4F3)" stroke-width="2" stroke-linecap="round" stroke-linejoin="round"/>
</svg>
