<svg preserveAspectRatio="none" width="100%" height="100%" overflow="visible" style="display: block;" viewBox="0 0 17.8399 17.8399" fill="none" xmlns="http://www.w3.org/2000/svg">
<path id="Vector" d="M6.90843 6.00658C7.10435 5.44964 7.49106 4.98 8.00006 4.68086C8.50906 4.38171 9.10751 4.27236 9.68941 4.37217C10.2713 4.47198 10.7991 4.77452 11.1793 5.22619C11.5595 5.67786 11.7676 6.24951 11.7668 6.83991C11.7668 8.50658 9.26677 9.33991 9.26677 9.33991M9.33336 12.6732H9.34169M5.91669 15.1732C7.50718 15.9891 9.33676 16.2101 11.0758 15.7964C12.8148 15.3826 14.3488 14.3614 15.4015 12.9167C16.4542 11.472 16.9562 9.69881 16.8172 7.91668C16.6782 6.13456 15.9072 4.46069 14.6432 3.19671C13.3792 1.93273 11.7053 1.16176 9.92323 1.02273C8.1411 0.883702 6.36792 1.38576 4.92321 2.43842C3.4785 3.49109 2.45727 5.02514 2.04355 6.76414C1.62982 8.50315 1.85081 10.3327 2.66669 11.9232L1.00003 16.8399L5.91669 15.1732Z" stroke="var(--stroke-0, #F4F4F3)" stroke-width="2" stroke-linecap="round" stroke-linejoin="round"/>
</svg>
